# xmcd CD database file
#
# Track frame offsets:
#	150
#	16003
#	34557
#	53149
#	70011
#	85722
#	100170
#	119131
#	130035
#	147212
#	161395
#	180729
#	204411
#
# Disc length: 2881 seconds
#
# Revision: 6
# Processed by: cddbd v1.5.2PL0 Copyright (c) Steve Scherf et al.
# Submitted via: CDex 1.70beta2
#
DISCID=a20b3f0d
DTITLE=Story of the Year - in the wake of determination
DYEAR=2005
DGENRE=Rock
TTITLE0=We Don't Care Anymore
TTITLE1=Take Me Back
TTITLE2=Our Time Is Now
TTITLE3=Taste The Poison
TTITLE4=Stereo
TTITLE5=Five Against The World
TTITLE6=Sleep
TTITLE7=Meathead
TTITLE8=March Of The Dead
TTITLE9=Pay Your Enemy
TTITLE10=Wake Up The Voiceless
TTITLE11="Is This My Fate?" He Asked Them
TTITLE12=Long Empty Road
EXTD=YEAR: 2005
EXTT0=
EXTT1=
EXTT2=
EXTT3=
EXTT4=
EXTT5=
EXTT6=
EXTT7=
EXTT8=
EXTT9=
EXTT10=
EXTT11=
EXTT12=
PLAYORDER=
